<?xml version="1.0" encoding="UTF-8"?>
<svg version="1.1" xmlns="http://www.w3.org/2000/svg" width="1200" height="208">
<path d="M0 0 C59 0 59 0 61 1 C61.46508443 3.46558457 61.8134212 5.88814928 62.125 8.375 C63.50896055 18.16753992 65.64487893 27.74857814 67.875 37.375 C68.05315247 38.14537598 68.23130493 38.91575195 68.41485596 39.70947266 C70.58152308 49.05996567 72.81147056 58.39448722 75.06811523 67.72363281 C76.96956661 75.68698958 78.68911245 83.68904601 80.41293335 91.69229126 C80.93384386 94.10804444 81.45747627 96.52319398 81.98168945 98.93823242 C83.45235258 105.7268037 84.9156756 112.51496579 86.27378845 119.3270874 C86.66012552 121.25769171 87.05659052 123.18626067 87.45336914 125.11474609 C87.93134836 127.44090105 88.39237574 129.77062473 88.83374023 132.10400391 C89.04716064 133.1254248 89.26058105 134.1468457 89.48046875 135.19921875 C89.65473389 136.08440186 89.82899902 136.96958496 90.00854492 137.8815918 C90.85652043 140.263516 90.85652043 140.263516 93.5949707 141.30004883 C94.38863037 141.53103271 95.18229004 141.7620166 96 142 C96.67662 139.31466436 97.34146121 136.627275 98 133.9375 C98.28617188 132.80924805 98.28617188 132.80924805 98.578125 131.65820312 C99.70864166 126.99482189 100.14641616 122.83173327 100 118 C100.5 115.5625 100.5 115.5625 101 114 C101.66 114 102.32 114 103 114 C102.67 112.02 102.34 110.04 102 108 C102.66 108 103.32 108 104 108 C103.896875 106.72125 103.79375 105.4425 103.6875 104.125 C103.70109433 99.22424383 104.69273281 94.85923307 106.0625 90.1875 C112.98503045 66.47484077 117.87602055 42.3350375 122.71166992 18.12866211 C122.92229568 17.07828766 123.13292145 16.02791321 123.34992981 14.94570923 C123.74959849 12.94989101 124.14666764 10.95355002 124.54081726 8.95663452 C124.71861221 8.06835968 124.89640717 7.18008484 125.07958984 6.26489258 C125.23390472 5.48632401 125.3882196 4.70775543 125.54721069 3.90559387 C126 2 126 2 127 0 C134.80575195 -0.02312792 142.61149595 -0.04091738 150.41727352 -0.05181217 C154.0414596 -0.05704002 157.6656223 -0.06413587 161.28979492 -0.07543945 C164.78459975 -0.08627184 168.27938204 -0.09227758 171.77420235 -0.09487724 C173.76239389 -0.09763551 175.75057631 -0.10544688 177.73875427 -0.11329651 C178.93992386 -0.11337204 180.14109344 -0.11344757 181.37866211 -0.11352539 C182.44233505 -0.115746 183.506008 -0.11796661 184.60191345 -0.12025452 C187 0 187 0 188 1 C188.09771507 3.47891971 188.12995957 5.92994777 188.12025452 8.40931702 C188.12153615 9.58666173 188.12153615 9.58666173 188.12284368 10.78779119 C188.12450087 13.43805859 188.11897324 16.08826375 188.11352539 18.73852539 C188.11324354 20.63027444 188.1134012 22.5220236 188.1139679 24.41377258 C188.11425597 29.5664511 188.10835765 34.71910655 188.10139394 39.87177968 C188.09516204 45.25032896 188.09455673 50.6288787 188.09336853 56.00743103 C188.09025473 66.20011824 188.08204069 76.39279479 188.07201904 86.58547729 C188.06085941 98.18624568 188.05534783 109.78701457 188.05032361 121.38778698 C188.03985811 145.25853194 188.02151203 169.12926227 188 193 C174.47 193 160.94 193 147 193 C146.97720912 178.65436802 146.95894821 164.30874849 146.94818783 149.96310234 C146.94308529 143.29847375 146.9360299 136.6338599 146.92456055 129.96923828 C146.91161209 122.26855396 146.904124 114.56788257 146.90234375 106.8671875 C146.90198498 105.62329002 146.90162621 104.37939255 146.90125656 103.09780121 C146.90410627 87.72553661 147.00467263 72.37681557 147.7353363 57.01974487 C147.80749107 55.46720505 147.80749107 55.46720505 147.88110352 53.88330078 C147.95120384 52.59155441 147.95120384 52.59155441 148.02272034 51.27371216 C148.0001293 49.01293951 147.64635291 47.15878567 147 45 C143.28221264 57.78150121 140.67356696 70.77792533 137.99795532 83.80914307 C136.59498351 90.63903007 135.17092695 97.46452495 133.7421875 104.2890625 C133.59353304 104.99915844 133.44487858 105.70925438 133.29171944 106.44086838 C129.7608069 123.28390938 126.06223236 140.08912246 122.31201553 156.88453674 C121.81298749 159.12281348 121.31615111 161.36156646 120.81991577 163.60046387 C120.03866357 167.12363967 119.2518497 170.64552596 118.46043015 174.16643143 C118.03093565 176.08194962 117.60617729 177.9985278 117.18154907 179.91513062 C116.92288055 181.05833771 116.66421204 182.2015448 116.39770508 183.37939453 C116.06347282 184.87093552 116.06347282 184.87093552 115.7224884 186.39260864 C115.03973116 188.85661405 114.40340269 190.86202145 113 193 C105.97694291 194.62350911 98.60994853 194.18393694 91.4375 194.1875 C90.13619141 194.19974609 88.83488281 194.21199219 87.49414062 194.22460938 C85.60791992 194.22750977 85.60791992 194.22750977 83.68359375 194.23046875 C82.54462646 194.23457764 81.40565918 194.23868652 80.23217773 194.24291992 C76.8269902 193.98699715 74.14211552 193.32676771 71 192 C70.01171875 189.90625 70.01171875 189.90625 69.6875 187.5 C69.21520068 184.13570743 69.21520068 184.13570743 68 181 C67.82079635 179.62894989 67.68010864 178.25270119 67.5625 176.875 C67.00317494 171.37053112 65.75188183 166.25564548 64 161 C63.83234665 159.64893029 63.69479984 158.29396514 63.57861328 156.9375 C63.04761986 151.84201779 61.95133508 146.97216764 60.7421875 142 C60.40596878 140.58656563 60.40596878 140.58656563 60.06295776 139.14457703 C59.58453823 137.13367968 59.10398602 135.12328871 58.62145996 133.1133728 C57.36102378 127.85628208 56.12138228 122.59431006 54.8828125 117.33203125 C54.6360376 116.28400833 54.3892627 115.23598541 54.13500977 114.15620422 C52.07868091 105.39458316 50.09222763 96.61965772 48.20709229 87.81958008 C47.90340015 86.40302598 47.59722327 84.98700221 47.28851318 83.5715332 C46.86743552 81.63648076 46.45683378 79.69915731 46.046875 77.76171875 C45.81838867 76.68881592 45.58990234 75.61591309 45.35449219 74.51049805 C45 72 45 72 46 70 C45.34 70 44.68 70 44 70 C43.94392578 69.09121094 43.94392578 69.09121094 43.88671875 68.1640625 C43.3859239 61.78138306 42.04935314 56.05783632 40 50 C38.41963311 53.16073377 38.89024726 56.5499769 38.91992188 60.01855469 C38.92272659 60.85214256 38.92553131 61.68573044 38.92842102 62.54457855 C38.9347149 64.37018361 38.94309375 66.19578235 38.95326233 68.02136993 C38.98000928 73.03049456 38.9881135 78.03964351 38.99609375 83.04882812 C38.99795937 84.10459675 38.99982498 85.16036537 39.00174713 86.24812698 C39.01489939 98.0047919 38.90619653 109.75973479 38.78125 121.515625 C38.77017212 122.57287277 38.75909424 123.63012054 38.74768066 124.71940613 C38.6799382 131.14188664 38.6087695 137.56432511 38.53643799 143.98675537 C38.4743497 149.54714078 38.41505286 155.10755604 38.35546875 160.66796875 C38.23959564 171.44534253 38.12056031 182.22267763 38 193 C25.46 193 12.92 193 0 193 C0 129.31 0 65.62 0 0 Z " fill="#010101" transform="translate(465,5)"/>
<path d="M0 0 C0.99100708 -0.00411392 1.98201416 -0.00822784 3.00305176 -0.01246643 C25.98361787 -0.01034424 44.61534983 5.88573723 61.9453125 21.0703125 C80.46818935 40.12140827 85.41132558 67.2051213 85.4453125 92.6953125 C85.44666199 93.60526978 85.44801147 94.51522705 85.44940186 95.45275879 C85.37891567 125.44298418 77.26878897 153.34687965 57.06640625 176.1953125 C40.42797076 192.2947058 17.72625508 194.84175359 -4.15234375 194.55859375 C-6.08100661 194.55121944 -8.00967957 194.54613269 -9.93835449 194.54333496 C-14.20648114 194.53139634 -18.47403482 194.50150661 -22.74197388 194.45986938 C-32.97456929 194.36066508 -43.20741634 194.30101915 -53.44027984 194.23664701 C-58.79897264 194.20274923 -64.15765706 194.16758131 -69.51634216 194.13249207 C-71.3715893 194.12039169 -73.22683648 194.10829688 -75.0820837 194.09620953 C-76.39304296 194.08766351 -77.70400221 194.07911749 -79.0546875 194.0703125 C-79.0780135 169.05389417 -79.0956652 144.03747746 -79.10649967 119.02105045 C-79.11166327 107.40636393 -79.11870717 95.79168415 -79.13012695 84.17700195 C-79.14007186 74.05757739 -79.14654046 63.9381577 -79.14877599 53.81872839 C-79.15008343 48.4570327 -79.15317136 43.09535097 -79.16041756 37.73365974 C-79.16717472 32.69326704 -79.16930509 27.65289414 -79.16779518 22.61249733 C-79.16807165 20.75686282 -79.17007856 18.90122769 -79.17389297 17.04559708 C-79.17882549 14.52358306 -79.17768744 12.00164508 -79.17494202 9.47962952 C-79.17785486 8.73548029 -79.1807677 7.99133105 -79.18376881 7.22463185 C-79.16880871 2.18443371 -79.16880871 2.18443371 -78.0546875 1.0703125 C-76.19360109 0.94667965 -74.32787824 0.89235655 -72.46289062 0.86499023 C-70.66205017 0.8350724 -70.66205017 0.8350724 -68.8248291 0.80455017 C-66.85032776 0.77948143 -66.85032776 0.77948143 -64.8359375 0.75390625 C-63.46235597 0.73329021 -62.08878013 0.71229269 -60.71520996 0.69093323 C-57.81310408 0.64682126 -54.91097679 0.60597198 -52.00878906 0.56762695 C-48.36817622 0.51947544 -44.72767872 0.46567554 -41.08717918 0.40966892 C-27.39208617 0.19971835 -13.69683227 0.03045715 0 0 Z M-39.0546875 34.0703125 C-39.0546875 75.3203125 -39.0546875 116.5703125 -39.0546875 159.0703125 C-23.05374423 159.96741204 -23.05374423 159.96741204 -7.0546875 160.3203125 C-5.93191406 160.3409375 -4.80914062 160.3615625 -3.65234375 160.3828125 C8.87130118 160.44126592 17.48258489 157.37196924 26.9453125 149.0703125 C38.34420164 137.3336785 42.01605077 119.97664043 42.18359375 104.07421875 C42.19570137 102.94740944 42.19570137 102.94740944 42.20805359 101.7978363 C42.22181271 100.21200813 42.23257096 98.62615135 42.24047852 97.0402832 C42.25191914 95.45132486 42.27224324 93.86240249 42.30200195 92.27368164 C42.62787463 74.80945505 40.26227721 57.12192703 27.82421875 43.82421875 C10.66960104 27.81086459 -19.23728635 34.48317502 -39.0546875 34.0703125 Z " fill="#010101" transform="translate(84.0546875,3.9296875)"/>
<path d="M0 0 C1.0003125 0.515625 2.000625 1.03125 3.03125 1.5625 C20.35824065 11.01358581 30.64253432 27.46419545 36.4400177 45.99145508 C38.61549525 53.79445954 39.30820586 61.27137382 39.30078125 69.3515625 C39.30506638 70.40926849 39.3093515 71.46697449 39.31376648 72.55673218 C39.3194773 74.78374521 39.32003419 77.01077688 39.31567383 79.23779297 C39.31252805 82.59506139 39.33596599 85.95143477 39.36132812 89.30859375 C39.44345363 116.96362154 33.13823404 145.6071061 13 166 C-23.71523576 198.57120497 -80.87979362 185.47384842 -124 185 C-124 121.31 -124 57.62 -124 -8 C-17.61447679 -9.31340152 -17.61447679 -9.31340152 0 0 Z M-85 25 C-85 66.25 -85 107.5 -85 150 C-50.53630469 153.29968861 -50.53630469 153.29968861 -18.91015625 141 C-11.94708375 133.70942103 -8.12230407 126.61248668 -5 117 C-4.649375 115.99324219 -4.29875 114.98648438 -3.9375 113.94921875 C-2.35274976 108.26262361 -2.21402364 102.29850011 -1.8125 96.4375 C-1.71775391 95.25091797 -1.62300781 94.06433594 -1.52539062 92.84179688 C-0.24471599 74.843919 -1.55148346 55.05560722 -13.109375 40.30859375 C-19.62417059 32.79908943 -25.02939613 28.95106355 -34.70703125 26.61328125 C-37 26 -37 26 -38 25 C-53.51 25 -69.02 25 -85 25 Z " fill="#010101" transform="translate(323,13)"/>
<path d="M0 0 C0.67740234 0.30599121 1.35480469 0.61198242 2.05273438 0.92724609 C14.19412414 6.70569113 20.99593802 16.17937603 26.875 27.9375 C26.875 32.8875 26.875 37.8375 26.875 42.9375 C14.665 42.9375 2.455 42.9375 -10.125 42.9375 C-11.445 39.6375 -12.765 36.3375 -14.125 32.9375 C-18.75269469 28.10860119 -23.46705153 25.97079748 -30.11328125 25.6015625 C-31.55444931 25.57230272 -32.99603751 25.55977542 -34.4375 25.5625 C-35.56309326 25.56165405 -35.56309326 25.56165405 -36.71142578 25.56079102 C-42.62276748 25.67799313 -47.00528893 26.94499282 -52.125 29.9375 C-53.115 30.2675 -54.105 30.5975 -55.125 30.9375 C-55.3286861 34.40016377 -55.3528552 37.25393441 -54.25 40.5625 C-48.29736126 47.21544918 -38.73329367 49.07946157 -30.34375 50.875 C-29.24961792 51.12241943 -28.15548584 51.36983887 -27.02819824 51.62475586 C-23.56309007 52.40801687 -20.09469519 53.17483403 -16.625 53.9375 C-12.04858938 54.94343063 -7.47650728 55.96651374 -2.90625 57 C-1.87367065 57.22099365 -0.84109131 57.4419873 0.22277832 57.66967773 C12.18060901 60.37746065 20.58219868 64.92106064 27.875 74.9375 C32.48135234 82.99225423 33.0763856 90.57230065 33.125 99.6875 C33.1559375 101.11449219 33.1559375 101.11449219 33.1875 102.5703125 C33.25078863 114.12048743 29.59502751 122.32865353 21.875 130.9375 C11.03658072 140.3581028 0.30811403 144.73361749 -13.90234375 145.69140625 C-16.09572742 145.69989534 -16.09572742 145.69989534 -17.125 146.9375 C-19.57330426 147.02593793 -21.99320599 147.05278752 -24.44140625 147.03515625 C-25.53798805 147.03303383 -25.53798805 147.03303383 -26.65672302 147.03086853 C-29.00035632 147.02525408 -31.34389539 147.01269922 -33.6875 147 C-35.27278508 146.99498686 -36.85807166 146.99042363 -38.44335938 146.98632812 C-42.3372761 146.97527997 -46.23112205 146.95800572 -50.125 146.9375 C-50.125 146.2775 -50.125 145.6175 -50.125 144.9375 C-50.73085938 144.97230469 -51.33671875 145.00710937 -51.9609375 145.04296875 C-63.65555572 145.42079488 -71.67356968 141.60733848 -81.125 134.9375 C-82.73375 133.82375 -82.73375 133.82375 -84.375 132.6875 C-91.01575178 126.04674822 -95.10935665 117.74317859 -98.125 108.9375 C-98.558125 107.7 -98.99125 106.4625 -99.4375 105.1875 C-100.125 101.9375 -100.125 101.9375 -99.125 95.9375 C-86.255 95.9375 -73.385 95.9375 -60.125 95.9375 C-56.125 105.9375 -56.125 105.9375 -55.125 108.9375 C-46.33831732 116.49135731 -35.17847112 116.74718823 -24.125 115.9375 C-16.21007254 114.68531951 -16.21007254 114.68531951 -10.125 109.9375 C-9.08405325 105.40194629 -8.6675305 103.24573113 -10.2109375 98.83203125 C-12.68231856 95.09469785 -14.34231126 94.64543785 -18.625 93.4375 C-19.30425537 93.2415625 -19.98351074 93.045625 -20.68334961 92.84375 C-28.77910333 90.59517351 -37.03348248 88.94508728 -45.24194336 87.16796875 C-61.36576351 83.63546971 -79.62245138 79.11799586 -89.66015625 64.73828125 C-95.78898975 54.21384121 -96.78979542 42.30877243 -94.4375 30.48046875 C-90.47455748 17.61741781 -82.41137634 7.49694365 -70.5625 1.125 C-50.63848636 -8.39319426 -20.23125389 -9.17938226 0 0 Z " fill="#020202" transform="translate(942.125,56.0625)"/>
<path d="M0 0 C12.87 0 25.74 0 39 0 C40.14745222 19.50668767 40.14745222 19.50668767 40.15771484 26.23852539 C40.16279556 27.01819672 40.16787628 27.79786804 40.17311096 28.60116577 C40.18360763 30.25201964 40.19230414 31.90288591 40.19923019 33.55375862 C40.21129055 36.17437159 40.23079231 38.79483873 40.25234985 41.41539001 C40.31314922 48.8513404 40.36817304 56.28725866 40.40136719 63.72338867 C40.42235909 68.30781288 40.45766226 72.89194034 40.50212479 77.47619438 C40.51620772 79.20839386 40.52498965 80.94064546 40.52817917 82.67289925 C40.53311303 85.09092438 40.5563221 87.50816179 40.58349609 89.92602539 C40.58048996 90.62796524 40.57748383 91.32990509 40.5743866 92.05311584 C40.68211177 98.53990205 42.25901135 103.83552762 46.3125 108.875 C51.76490336 113.18620266 57.29276611 113.64588178 64 113 C71.21361918 111.82767992 76.31202383 110.68193957 82 106 C82.99 106 83.98 106 85 106 C85.103125 105.175 85.20625 104.35 85.3125 103.5 C86 100 86 100 87.5 96.375 C91.31247703 86.49184324 90.17522063 74.60107888 90.26036072 64.13132668 C90.28167759 61.5298491 90.30866121 58.92848176 90.33703613 56.32707214 C90.40626944 49.88163911 90.46653351 43.43612955 90.52606201 36.99060059 C90.57691269 31.51034407 90.63163033 26.03015506 90.69187927 20.54999352 C90.71847625 17.98344782 90.73925772 15.41689561 90.7598877 12.85029602 C90.77647601 11.29187709 90.79334652 9.73346113 90.81054688 8.17504883 C90.81473129 7.4587883 90.81891571 6.74252777 90.82322693 6.00456238 C90.88612663 1.11387337 90.88612663 1.11387337 92 0 C104.21 0 116.42 0 129 0 C129 47.52 129 95.04 129 144 C117.12 144 105.24 144 93 144 C93 138.06 93 132.12 93 126 C88.28786692 130.48785429 88.28786692 130.48785429 85.8125 133.875 C80.48938692 140.37356392 71.88866885 146.15211894 63.49560547 147.3605957 C60.61980715 147.59187333 57.75876872 147.72590458 54.875 147.8125 C53.84963135 147.84601563 52.8242627 147.87953125 51.76782227 147.9140625 C37.51305385 148.25708867 24.86148611 146.25030681 13.55078125 136.99609375 C1.29776602 124.32297514 -1.42470047 106.64035672 -1.51171875 89.7421875 C-1.52879925 88.39730798 -1.5471 87.05244348 -1.56652832 85.70759583 C-1.61417929 82.15851552 -1.64437228 78.60950569 -1.6701622 75.06020737 C-1.69924046 71.39526529 -1.74294047 67.73049248 -1.78442383 64.06567383 C-1.85467881 57.63204971 -1.90972394 51.19841164 -1.9561739 44.764575 C-1.99266482 39.76112207 -2.0429161 34.75791987 -2.09757996 29.75463867 C-2.13140423 26.45781667 -2.15557429 23.16101515 -2.17422485 19.86407471 C-2.18299963 18.42537521 -2.19448751 16.98668942 -2.20883179 15.54803467 C-2.22619848 13.6193274 -2.22883013 11.69050351 -2.23046875 9.76171875 C-2.23457764 8.73006592 -2.23868652 7.69841309 -2.24291992 6.63549805 C-2 4 -2 4 0 0 Z " fill="#010101" transform="translate(688,54)"/>
<path d="M0 0 C1.23363281 -0.01611328 2.46726562 -0.03222656 3.73828125 -0.04882812 C15.44145351 -0.05498121 26.14389218 1.69476356 36.4375 7.4375 C37.15663574 7.83219482 37.87577148 8.22688965 38.61669922 8.63354492 C50.28712534 15.25186696 58.43681118 23.84467896 62.9296875 36.68359375 C63.82805774 40.65781257 63.94702035 44.18085042 63.875 48.25 C63.86597656 48.93384766 63.85695313 49.61769531 63.84765625 50.32226562 C63.82438958 51.98583287 63.78853167 53.64921631 63.75 55.3125 C59.83334973 55.34203391 55.91672887 55.35947503 52 55.375 C50.90816406 55.38337891 49.81632812 55.39175781 48.69140625 55.40039062 C45.37608129 55.41019928 42.06484845 55.36642576 38.75 55.3125 C37.09182251 55.3273645 37.09182251 55.3273645 35.40014648 55.3425293 C27.70423054 55.15763009 27.70423054 55.15763009 25.14208984 52.88842773 C23.93778349 50.96882231 23.10798596 49.12063464 22.3125 47 C20.16224036 41.89859394 18.64253326 38.37505946 13.75 35.3125 C10.00426754 33.79330808 5.86551206 34.12866102 1.875 34.125 C1.18019531 34.11275391 0.48539063 34.10050781 -0.23046875 34.08789062 C-7.31942264 34.06786533 -12.76686091 35.78295031 -18.25 40.3125 C-28.46872604 55.94113982 -28.36464314 78.65119908 -25.07421875 96.41015625 C-22.4354382 105.7021655 -18.65316031 112.09359599 -10.3125 117.0625 C-4.09685815 119.51604284 3.95240996 119.66235428 10.22265625 117.43359375 C12.29887337 116.22146699 13.98045069 114.93734317 15.75 113.3125 C16.30171875 112.81621094 16.8534375 112.31992188 17.421875 111.80859375 C22.40357413 106.69125429 23.09596963 102.61108352 25.75 95.3125 C38.29 95.3125 50.83 95.3125 63.75 95.3125 C63.75 103.62225484 63.69691692 109.20804954 59.75 116.3125 C59.42 116.9725 59.09 117.6325 58.75 118.3125 C58.09 118.3125 57.43 118.3125 56.75 118.3125 C56.75 119.6325 56.75 120.9525 56.75 122.3125 C56.09 122.3125 55.43 122.3125 54.75 122.3125 C54.3478125 123.7046875 54.3478125 123.7046875 53.9375 125.125 C52.76437152 128.27392381 52.157621 129.17239244 49.75 131.3125 C48.88776601 132.36846378 48.03426011 133.43158797 47.1875 134.5 C46.383125 135.428125 45.57875 136.35625 44.75 137.3125 C44.09 137.3125 43.43 137.3125 42.75 137.3125 C42.09 137.9725 41.43 138.6325 40.75 139.3125 C31.25 145.3125 31.25 145.3125 25.75 145.3125 C25.42 145.9725 25.09 146.6325 24.75 147.3125 C23.09608154 147.70421753 21.42654729 148.03307545 19.75 148.3125 C18.76 148.6425 17.77 148.9725 16.75 149.3125 C14.09028447 149.72442535 11.42480199 150.00555551 8.75 150.3125 C8.75 150.6425 8.75 150.9725 8.75 151.3125 C-13.4801121 151.77085283 -31.61999515 149.80170215 -48.91796875 134.65625 C-62.75428678 120.75040273 -66.68303681 103.04748788 -66.66015625 84.109375 C-66.65387207 83.19607422 -66.64758789 82.28277344 -66.64111328 81.34179688 C-66.62511028 78.58152217 -66.64098799 75.82272882 -66.66015625 73.0625 C-66.69003932 50.64932097 -62.5160905 31.76899624 -46.25 15.3125 C-32.60047756 3.51182592 -17.52370581 -0.0452108 0 0 Z M60.75 108.3125 C61.75 110.3125 61.75 110.3125 61.75 110.3125 Z " fill="#020202" transform="translate(1133.25,50.6875)"/>
<path d="M0 0 C12.54 0 25.08 0 38 0 C38 47.52 38 95.04 38 144 C25.46 144 12.92 144 0 144 C0 96.48 0 48.96 0 0 Z " fill="#000000" transform="translate(1002,54)"/>
<path d="M0 0 C0.82290527 0.00202423 1.64581055 0.00404846 2.49365234 0.00613403 C3.33331543 0.00517731 4.17297852 0.00422058 5.03808594 0.00323486 C6.81689529 0.00255306 8.59570712 0.00440737 10.37451172 0.00857544 C13.10699011 0.01392371 15.83930411 0.00863048 18.57177734 0.00222778 C20.29573604 0.00288856 22.01969464 0.00416973 23.74365234 0.00613403 C24.56655762 0.0041098 25.38946289 0.00208557 26.23730469 0 C32.0037018 0.02399599 32.0037018 0.02399599 33.11865234 1.13894653 C33.20712068 3.65962834 33.23399759 6.1534907 33.21630859 8.67410278 C33.21530151 9.34147461 33.21429443 10.00884644 33.21325684 10.69644165 C33.20801043 13.19812733 33.19404925 15.69978859 33.18115234 18.20144653 C33.16052734 23.79082153 33.13990234 29.38019653 33.11865234 35.13894653 C19.91865234 35.13894653 6.71865234 35.13894653 -6.88134766 35.13894653 C-6.90197266 29.54957153 -6.92259766 23.96019653 -6.94384766 18.20144653 C-6.95295166 16.43551147 -6.96205566 14.66957642 -6.97143555 12.85012817 C-6.97435479 11.45812049 -6.97690333 10.06611195 -6.97900391 8.67410278 C-6.98667786 7.58059509 -6.98667786 7.58059509 -6.99450684 6.46499634 C-6.99481777 4.68924577 -6.9436328 2.91360445 -6.88134766 1.13894653 C-5.03858257 -0.70381855 -2.45171007 0.01020242 0 0 Z " fill="#030303" transform="translate(1006.88134765625,2.861053466796875)"/>
<path d="M0 0 C0.33 0 0.66 0 1 0 C1 60.39 1 120.78 1 183 C0.67 183 0.34 183 0 183 C0 122.61 0 62.22 0 0 Z " fill="#000000" transform="translate(197,13)"/>
<path d="M0 0 C0.99 0 1.98 0 3 0 C3.02497729 3.9652407 3.0429894 7.93045005 3.05493164 11.89575195 C3.06235104 13.89731458 3.07506659 15.89885533 3.08789062 17.90039062 C3.10499609 24.69125925 2.93798004 31.27165501 2 38 C0.50463867 36.99682617 0.50463867 36.99682617 -1 35 C-1.19169095 32.26196103 -1.20989481 29.77500071 -1.07421875 27.05078125 C-1.04777786 26.27816452 -1.02133698 25.50554779 -0.99409485 24.70951843 C-0.90635819 22.24305698 -0.7972037 19.77807257 -0.6875 17.3125 C-0.62423822 15.6400268 -0.56237225 13.96750018 -0.50195312 12.29492188 C-0.35082229 8.19581901 -0.18047878 4.09791136 0 0 Z " fill="#070707" transform="translate(501,72)"/>
<path d="" fill="#000000" transform="translate(0,0)"/>
<path d="" fill="#000000" transform="translate(0,0)"/>
<path d="" fill="#000000" transform="translate(0,0)"/>
<path d="" fill="#000000" transform="translate(0,0)"/>
<path d="" fill="#000000" transform="translate(0,0)"/>
<path d="" fill="#000000" transform="translate(0,0)"/>
<path d="" fill="#000000" transform="translate(0,0)"/>
<path d="" fill="#000000" transform="translate(0,0)"/>
</svg>
